<?xml version="1.0" encoding="UTF-8" standalone="no"?>
<svg
   xmlns:dc="http://purl.org/dc/elements/1.1/"
   xmlns:cc="http://creativecommons.org/ns#"
   xmlns:rdf="http://www.w3.org/1999/02/22-rdf-syntax-ns#"
   xmlns:svg="http://www.w3.org/2000/svg"
   xmlns="http://www.w3.org/2000/svg"
   xmlns:sodipodi="http://sodipodi.sourceforge.net/DTD/sodipodi-0.dtd"
   xmlns:inkscape="http://www.inkscape.org/namespaces/inkscape"
   width="32"
   height="32"
   viewBox="0 0 32 32"
   class="fieldtext"
   version="1.1"
   id="svg3794"
   sodipodi:docname="savescreenshot.svg"
   inkscape:version="0.92.4 5da689c313, 2019-01-14">
  <metadata
     id="metadata3800">
    <rdf:RDF>
      <cc:Work
         rdf:about="">
        <dc:format>image/svg+xml</dc:format>
        <dc:type
           rdf:resource="http://purl.org/dc/dcmitype/StillImage" />
        <dc:title />
      </cc:Work>
    </rdf:RDF>
  </metadata>
  <defs
     id="defs3798" />
  <sodipodi:namedview
     pagecolor="#ffffff"
     bordercolor="#666666"
     borderopacity="1"
     objecttolerance="10"
     gridtolerance="10"
     guidetolerance="10"
     inkscape:pageopacity="0"
     inkscape:pageshadow="2"
     inkscape:window-width="1536"
     inkscape:window-height="967"
     id="namedview3796"
     showgrid="false"
     inkscape:zoom="14.44212"
     inkscape:cx="8.6958372"
     inkscape:cy="13.691332"
     inkscape:window-x="805"
     inkscape:window-y="229"
     inkscape:window-maximized="0"
     inkscape:current-layer="svg3794" />
  <path
     style="stroke-width:1.05357778;fill:#0c0c0d;fill-opacity:1;opacity:0.8"
     d="M 15.089844 4.7949219 C 13.041164 4.7949219 12.412634 8.7138119 10.083984 8.7324219 L 3.6269531 8.7851562 C 1.9320531 8.7744194 0.28146563 10.103537 0.16601562 11.916016 L 0.29296875 24.519531 C 0.35031875 26.402713 1.9213875 27.885191 3.8046875 27.832031 L 28.388672 27.832031 C 30.272202 27.885778 31.843591 26.40297 31.900391 24.519531 L 31.916016 12.556641 C 32.058616 10.821373 30.163129 8.7241399 28.417969 8.7011719 L 25.345703 8.7011719 C 23.074283 8.7234859 22.476339 4.8200119 20.542969 4.7949219 L 15.089844 4.7949219 z M 16.132812 6.3632812 L 19.488281 6.3632812 C 21.065161 6.3613713 21.273729 9.1059219 19.636719 9.0859375 L 16.279297 9.0859375 C 14.736847 9.0948575 14.602692 6.382159 16.132812 6.3632812 z M 20.21875 12.482422 A 6.2925715 6.2925715 0 0 1 26.511719 18.775391 A 6.2925715 6.2925715 0 0 1 20.21875 25.066406 A 6.2925715 6.2925715 0 0 1 13.925781 18.775391 A 6.2925715 6.2925715 0 0 1 20.21875 12.482422 z M 20.201172 13.992188 A 4.7661161 4.7661161 0 0 0 15.435547 18.757812 A 4.7661161 4.7661161 0 0 0 20.201172 23.523438 A 4.7661161 4.7661161 0 0 0 24.966797 18.757812 A 4.7661161 4.7661161 0 0 0 20.201172 13.992188 z "
     id="path5" />
</svg>
